<svg width="200" height="200" viewBox="0 0 200 200" fill="none" xmlns="http://www.w3.org/2000/svg">
<mask id="mask0_3604_39942" style="mask-type:alpha" maskUnits="userSpaceOnUse" x="0" y="0" width="200" height="200">
<rect width="200" height="200" fill="#D9D9D9"/>
</mask>
<g mask="url(#mask0_3604_39942)">
<g clip-path="url(#clip0_3604_39942)">
<path d="M121.109 120.635C119.903 126.655 117.346 132.322 113.63 137.209C104.366 149.142 92.114 154.479 77.0892 153.299C58.171 151.816 43.0749 137.066 40.417 117.961C38.9837 107.67 41.2243 98.1037 47.199 89.6028C56.5346 76.3299 66.0019 63.1832 75.4528 50.0146C78.3852 45.9289 83.5527 45.9949 86.5291 50.075C87.9935 52.1069 89.4579 54.1497 90.9223 56.2035C91.8613 57.5379 91.768 58.6912 90.7027 59.4491C89.6373 60.2069 88.5061 59.8719 87.5615 58.5704C86.1118 56.5715 84.7059 54.5506 83.2507 52.5297C81.7954 50.5088 80.0875 50.5967 78.6872 52.5297C69.4066 65.4897 60.1461 78.4625 50.9058 91.448C49.3133 93.6995 48.0831 96.2092 46.6882 98.587C47.8992 99.3317 49.3342 99.6254 50.7405 99.4165C52.1467 99.2075 53.4341 98.5094 54.3763 97.4447C56.6169 94.979 58.3303 94.9845 60.6312 97.4447C63.1957 100.19 67.4297 100.339 69.8075 97.4117C71.735 95.0339 74.4698 95.281 76.1557 97.4117C78.5115 100.361 82.8882 100.229 85.4308 97.4117C87.5779 95.0174 89.3736 95.0229 91.5922 97.4117C92.1819 98.109 92.928 98.657 93.7698 99.011C94.6115 99.3651 95.525 99.5152 96.4358 99.4491C96.0623 97.9993 95.6614 96.6265 95.3375 95.2371C93.7833 88.2665 94.6008 80.9765 97.6603 74.5232C97.8668 74.1817 97.9556 73.7819 97.9129 73.3851C97.8703 72.9883 97.6986 72.6164 97.4242 72.3266C96.1283 70.6242 94.9036 68.856 93.668 67.0987C92.7509 65.7917 92.8499 64.5836 93.8933 63.8533C94.9366 63.1229 96.0898 63.4248 97.0344 64.7373C98.1656 66.2804 99.2693 67.8455 100.263 69.2348C102.63 66.9394 104.832 64.5012 107.336 62.4364C111.508 59.0491 116.51 56.8385 121.823 56.0334C123.377 55.7753 124.431 56.3573 124.673 57.6094C124.915 58.8614 124.124 59.7675 122.515 60.064C114.525 61.5577 108.199 65.638 103.641 72.3486C91.6088 90.0697 102.691 114.205 123.998 116.747C139.269 118.57 153.46 107.796 155.673 92.7C157.946 77.203 147.94 63.046 132.663 60.1575C131.908 60.0631 131.207 59.7145 130.675 59.169C130.503 58.8454 130.398 58.4897 130.369 58.124C130.34 57.7584 130.386 57.3907 130.505 57.0437C130.84 56.0662 131.774 55.8521 132.784 56.0114C136.713 56.6448 140.487 58.0121 143.91 60.0421C155.59 66.9174 162.065 80.6408 159.709 93.5018C157.106 107.708 146.765 118.153 132.91 120.597C129.262 121.248 125.527 121.248 121.878 120.597C121.691 120.668 121.46 120.674 121.109 120.635ZM117.188 119.746C117.062 119.63 116.928 119.523 116.787 119.427C109.057 116.783 102.594 111.346 98.6653 104.183C98.5623 104.026 98.4245 103.895 98.2626 103.799C98.1007 103.704 97.9191 103.647 97.7318 103.634C96.0411 103.848 94.3235 103.653 92.7238 103.065C91.124 102.477 89.689 101.514 88.539 100.256C86.3424 102.453 83.8547 103.667 80.8015 103.678C79.3464 103.677 77.9071 103.377 76.573 102.796C75.239 102.215 74.0388 101.365 73.0474 100.3C68.7091 104.611 62.317 104.996 57.5284 100.366C53.0474 103.903 51.7021 104.21 45.5516 102.975C42.394 112.755 44.1347 127.022 53.8876 137.445C64.0249 148.28 76.6499 151.794 90.8564 147.988C105.272 144.15 113.498 133.974 117.188 119.762V119.746Z" fill="#677580"/>
<path d="M137.298 72.9144C136.974 73.7491 136.82 74.2268 136.606 74.6716C131.872 84.3733 127.131 94.0749 122.383 103.777C121.68 105.21 120.576 105.726 119.439 105.204C118.303 104.683 117.984 103.436 118.72 101.909C123.454 92.2077 128.191 82.5061 132.932 72.8044C133.481 71.7061 134.239 70.8769 135.475 71.3107C136.2 71.5853 136.732 72.3982 137.298 72.9144Z" fill="#677580"/>
<path d="M118.078 88.0488C116.666 88.0488 115.286 87.6301 114.112 86.8456C112.938 86.0612 112.023 84.9462 111.483 83.6418C110.943 82.3373 110.801 80.9019 111.077 79.5171C111.352 78.1323 112.032 76.8602 113.03 75.8618C114.029 74.8634 115.301 74.1836 116.686 73.9082C118.07 73.6327 119.506 73.7741 120.81 74.3144C122.115 74.8547 123.23 75.7697 124.014 76.9437C124.799 78.1176 125.217 79.4979 125.217 80.9098C125.217 82.8032 124.465 84.619 123.126 85.9578C121.787 87.2966 119.972 88.0488 118.078 88.0488V88.0488ZM118.001 83.9247C118.402 83.9341 118.8 83.864 119.173 83.7182C119.546 83.5724 119.886 83.3538 120.174 83.0753C120.461 82.7968 120.691 82.4639 120.849 82.096C121.007 81.728 121.09 81.3322 121.093 80.9318C121.107 80.1264 120.8 79.3486 120.241 78.7693C119.681 78.19 118.914 77.8567 118.109 77.8429C117.303 77.829 116.525 78.1357 115.946 78.6954C115.367 79.2551 115.033 80.0221 115.02 80.8275C115.008 81.2277 115.076 81.6263 115.22 81.9998C115.365 82.3733 115.582 82.7142 115.86 83.0027C116.137 83.2911 116.47 83.5213 116.838 83.6796C117.205 83.8379 117.601 83.9212 118.001 83.9247V83.9247Z" fill="#677580"/>
<path d="M144.003 95.7205C144.003 97.6139 143.25 99.4298 141.912 100.769C140.573 102.107 138.757 102.859 136.864 102.859C134.97 102.859 133.154 102.107 131.816 100.769C130.477 99.4298 129.725 97.6139 129.725 95.7205C129.725 93.8271 130.477 92.0113 131.816 90.6725C133.154 89.3337 134.97 88.5815 136.864 88.5815C138.757 88.5815 140.573 89.3337 141.912 90.6725C143.25 92.0113 144.003 93.8271 144.003 95.7205ZM136.864 98.708C137.635 98.6767 138.366 98.3516 138.905 97.7992C139.445 97.2469 139.753 96.509 139.766 95.7368C139.78 94.9647 139.497 94.2167 138.977 93.646C138.457 93.0753 137.738 92.7252 136.968 92.6673C136.557 92.6364 136.144 92.6898 135.755 92.8242C135.365 92.9585 135.007 93.1711 134.702 93.4487C134.398 93.7263 134.153 94.0631 133.984 94.4387C133.814 94.8142 133.723 95.2203 133.716 95.6323C133.709 96.0443 133.786 96.4535 133.942 96.8346C134.099 97.2158 134.332 97.5609 134.626 97.8488C134.921 98.1368 135.272 98.3615 135.656 98.5093C136.041 98.657 136.452 98.7246 136.864 98.708V98.708Z" fill="#677580"/>
</g>
</g>
<defs>
<clipPath id="clip0_3604_39942">
<rect width="120.225" height="106.475" fill="white" transform="translate(40 47)"/>
</clipPath>
</defs>
</svg>
